<?xml version="1.0" standalone="no"?>
<!DOCTYPE svg PUBLIC "-//W3C//DTD SVG 20010904//EN"
 "http://www.w3.org/TR/2001/REC-SVG-20010904/DTD/svg10.dtd">
<svg version="1.0" xmlns="http://www.w3.org/2000/svg"
 width="1254.000000pt" height="1254.000000pt" viewBox="0 0 1254.000000 1254.000000"
 preserveAspectRatio="xMidYMid meet">

<g transform="translate(0.000000,1254.000000) scale(0.100000,-0.100000)"
fill="#000000" stroke="none">
<path d="M2412 11584 c-336 -49 -646 -202 -895 -443 -267 -258 -437 -573 -510
-945 l-21 -111 -4 -3760 c-2 -2789 0 -3788 8 -3870 40 -374 209 -739 469
-1008 246 -255 529 -413 871 -489 l105 -23 3840 0 3840 0 104 23 c151 33 239
65 396 143 178 88 301 176 440 314 268 268 447 628 495 997 8 59 10 1198 8
3903 l-4 3820 -22 99 c-32 148 -76 277 -137 404 -231 482 -652 822 -1158 934
l-102 23 -3815 1 c-3178 2 -3831 0 -3908 -12z m7733 -501 c167 -39 288 -94
428 -194 252 -179 425 -456 494 -792 16 -76 17 -353 20 -3757 3 -2479 0 -3713
-7 -3791 -50 -571 -467 -1037 -1005 -1124 -78 -13 -592 -15 -3806 -15 -3310 0
-3726 2 -3805 15 -495 87 -883 480 -985 1000 -21 104 -21 7552 0 7665 52 290
214 575 422 746 176 144 402 241 614 264 38 4 1751 7 3805 6 l3735 -1 90 -22z"/>
<path d="M4331 9123 c-85 -64 -310 -222 -500 -351 -483 -327 -651 -454 -880
-663 -516 -469 -826 -1088 -918 -1833 -19 -161 -22 -518 -4 -671 56 -493 258
-979 557 -1344 229 -278 515 -506 859 -682 358 -184 699 -280 995 -282 121 0
143 3 213 26 144 50 370 174 612 338 329 223 603 467 811 726 70 87 83 115 66
138 -11 16 -73 65 -81 65 -5 0 -54 -38 -110 -85 -256 -212 -494 -338 -761
-402 -155 -37 -399 -43 -565 -15 -287 50 -555 164 -791 339 -80 60 -187 150
-192 163 -1 4 77 63 175 131 545 380 772 644 828 964 35 204 17 326 -132 880
-31 119 -78 338 -94 450 -19 121 -18 467 0 560 31 159 96 282 214 403 89 92
85 91 175 39 168 -96 382 -207 399 -207 31 0 420 401 623 642 69 82 81 102 76
123 -8 30 -18 32 -161 39 -334 14 -721 204 -1113 545 -68 58 -101 81 -120 81
-19 0 -75 -37 -181 -117z m-177 -666 c160 -120 356 -259 419 -296 21 -13 37
-26 35 -31 -2 -4 -66 -60 -143 -126 -438 -371 -596 -540 -691 -739 -70 -148
-79 -192 -79 -410 1 -259 10 -301 160 -750 113 -335 130 -419 122 -609 -8
-199 -49 -327 -162 -496 -66 -100 -214 -266 -257 -289 -24 -12 -28 -11 -66 30
-294 322 -517 774 -606 1235 -40 208 -50 316 -49 534 0 487 117 905 360 1293
105 169 323 409 510 564 104 85 269 203 286 203 5 0 77 -51 161 -113z"/>
<path d="M8265 9179 c-156 -136 -411 -315 -1004 -706 -705 -465 -1017 -681
-1028 -710 -3 -7 -3 -24 1 -36 5 -22 13 -24 108 -35 126 -14 215 -40 332 -99
72 -36 93 -43 111 -35 12 6 69 48 127 95 318 255 813 607 855 607 26 0 207
-101 197 -109 -5 -4 -90 -75 -189 -156 -349 -289 -711 -602 -730 -634 -6 -10
-12 -478 -15 -1321 l-6 -1305 -22 -85 c-29 -107 -95 -245 -161 -333 -28 -38
-117 -141 -198 -230 -176 -194 -293 -335 -293 -351 0 -15 72 -86 88 -86 7 0
33 15 59 34 222 157 476 190 828 106 236 -56 423 -133 855 -351 162 -82 306
-149 320 -149 59 1 220 103 540 344 497 374 809 653 989 887 260 336 414 737
478 1248 25 190 24 653 -1 836 -91 676 -323 1181 -718 1560 -206 199 -421 340
-799 524 -123 60 -258 131 -299 159 -135 88 -221 197 -289 365 -18 46 -55 37
-136 -34z m-5 -1149 c414 -192 665 -377 881 -650 96 -122 122 -161 198 -296
193 -346 305 -761 330 -1219 30 -562 -54 -1106 -221 -1438 -114 -229 -288
-397 -410 -397 -51 0 -115 25 -387 152 -390 182 -540 241 -721 285 -181 45
-476 43 -595 -3 -11 -4 70 80 180 188 199 194 449 460 472 501 9 17 12 323 13
1329 0 888 3 1324 11 1360 6 29 24 94 40 143 17 50 32 96 34 103 3 6 9 12 14
12 5 0 77 -32 161 -70z"/>
</g>
</svg>
